<?xml version="1.0"?>
<!-- Generated by SVGo -->
<svg width="242.752mm" height="90.352mm"
     viewBox="0.000 0.000 242.752 90.352"
     xmlns="http://www.w3.org/2000/svg" 
     xmlns:xlink="http://www.w3.org/1999/xlink">
<polygon points="235.752,5.001 235.908,5.007 236.064,5.025 236.218,5.056 236.370,5.098 236.517,5.153 236.659,5.218 236.796,5.295 236.927,5.382 237.050,5.480 237.166,5.586 237.272,5.702 237.370,5.825 237.457,5.956 237.534,6.093 237.599,6.235 237.654,6.382 237.696,6.534 237.727,6.688 237.745,6.844 237.752,7.001 237.752,83.352 237.745,83.508 237.727,83.664 237.696,83.818 237.654,83.970 237.599,84.117 237.534,84.259 237.457,84.396 237.370,84.527 237.272,84.650 237.166,84.766 237.050,84.872 236.927,84.970 236.796,85.057 236.659,85.134 236.517,85.199 236.370,85.254 236.218,85.296 236.064,85.327 235.908,85.345 235.752,85.351 7.001,85.352 6.844,85.345 6.688,85.327 6.534,85.296 6.382,85.254 6.235,85.199 6.093,85.134 5.956,85.057 5.825,84.970 5.702,84.872 5.586,84.766 5.480,84.650 5.382,84.527 5.295,84.396 5.218,84.259 5.153,84.117 5.098,83.970 5.056,83.818 5.025,83.664 5.007,83.508 5.000,83.352 5.001,7.001 5.007,6.844 5.025,6.688 5.056,6.534 5.098,6.382 5.153,6.235 5.218,6.093 5.295,5.956 5.382,5.825 5.480,5.702 5.586,5.586 5.702,5.480 5.825,5.382 5.956,5.295 6.093,5.218 6.235,5.153 6.382,5.098 6.534,5.056 6.688,5.025 6.844,5.007 7.001,5.000" style="fill:none;stroke-width:0.050000mm;stroke:blue"/>
<polygon points="8.876,67.426 8.876,80.076 24.326,80.076 24.326,67.426" style="fill:none;stroke-width:0.050000mm;stroke:blue"/>
<polygon points="27.926,67.426 27.926,80.076 43.376,80.076 43.376,67.426" style="fill:none;stroke-width:0.050000mm;stroke:blue"/>
<polygon points="46.976,67.426 46.976,80.076 62.426,80.076 62.426,67.426" style="fill:none;stroke-width:0.050000mm;stroke:blue"/>
<polygon points="66.026,67.426 66.026,80.076 81.476,80.076 81.476,67.426" style="fill:none;stroke-width:0.050000mm;stroke:blue"/>
<polygon points="85.076,67.426 85.076,80.076 100.525,80.076 100.525,67.426" style="fill:none;stroke-width:0.050000mm;stroke:blue"/>
<polygon points="104.126,67.426 104.126,80.076 119.575,80.076 119.575,67.426" style="fill:none;stroke-width:0.050000mm;stroke:blue"/>
<polygon points="123.176,67.426 123.176,80.076 138.626,80.076 138.626,67.426" style="fill:none;stroke-width:0.050000mm;stroke:blue"/>
<polygon points="142.226,67.426 142.226,80.076 157.676,80.076 157.676,67.426" style="fill:none;stroke-width:0.050000mm;stroke:blue"/>
<polygon points="161.276,67.426 161.276,80.076 176.726,80.076 176.726,67.426" style="fill:none;stroke-width:0.050000mm;stroke:blue"/>
<polygon points="180.326,67.426 180.326,80.076 195.776,80.076 195.776,67.426" style="fill:none;stroke-width:0.050000mm;stroke:blue"/>
<polygon points="199.376,67.426 199.376,80.076 214.826,80.076 214.826,67.426" style="fill:none;stroke-width:0.050000mm;stroke:blue"/>
<polygon points="218.426,67.426 218.426,80.076 233.876,80.076 233.876,67.426" style="fill:none;stroke-width:0.050000mm;stroke:blue"/>
<polygon points="8.876,48.376 8.876,61.026 24.326,61.026 24.326,48.376" style="fill:none;stroke-width:0.050000mm;stroke:blue"/>
<polygon points="27.926,48.376 27.926,61.026 43.376,61.026 43.376,48.376" style="fill:none;stroke-width:0.050000mm;stroke:blue"/>
<polygon points="46.976,48.376 46.976,61.026 62.426,61.026 62.426,48.376" style="fill:none;stroke-width:0.050000mm;stroke:blue"/>
<polygon points="66.026,48.376 66.026,61.026 81.476,61.026 81.476,48.376" style="fill:none;stroke-width:0.050000mm;stroke:blue"/>
<polygon points="85.076,48.376 85.076,61.026 100.525,61.026 100.525,48.376" style="fill:none;stroke-width:0.050000mm;stroke:blue"/>
<polygon points="104.126,48.376 104.126,61.026 119.575,61.026 119.575,48.376" style="fill:none;stroke-width:0.050000mm;stroke:blue"/>
<polygon points="123.176,48.376 123.176,61.026 138.626,61.026 138.626,48.376" style="fill:none;stroke-width:0.050000mm;stroke:blue"/>
<polygon points="142.226,48.376 142.226,61.026 157.676,61.026 157.676,48.376" style="fill:none;stroke-width:0.050000mm;stroke:blue"/>
<polygon points="161.276,48.376 161.276,61.026 176.726,61.026 176.726,48.376" style="fill:none;stroke-width:0.050000mm;stroke:blue"/>
<polygon points="180.326,48.376 180.326,61.026 195.776,61.026 195.776,48.376" style="fill:none;stroke-width:0.050000mm;stroke:blue"/>
<polygon points="199.376,48.376 199.376,61.026 214.826,61.026 214.826,48.376" style="fill:none;stroke-width:0.050000mm;stroke:blue"/>
<polygon points="218.426,48.376 218.426,61.026 233.876,61.026 233.876,48.376" style="fill:none;stroke-width:0.050000mm;stroke:blue"/>
<polygon points="8.876,29.326 8.876,41.976 24.326,41.976 24.326,29.326" style="fill:none;stroke-width:0.050000mm;stroke:blue"/>
<polygon points="27.926,29.326 27.926,41.976 43.376,41.976 43.376,29.326" style="fill:none;stroke-width:0.050000mm;stroke:blue"/>
<polygon points="46.976,29.326 46.976,41.976 62.426,41.976 62.426,29.326" style="fill:none;stroke-width:0.050000mm;stroke:blue"/>
<polygon points="66.026,29.326 66.026,41.976 81.476,41.976 81.476,29.326" style="fill:none;stroke-width:0.050000mm;stroke:blue"/>
<polygon points="85.076,29.326 85.076,41.976 100.525,41.976 100.525,29.326" style="fill:none;stroke-width:0.050000mm;stroke:blue"/>
<polygon points="104.126,29.326 104.126,41.976 119.575,41.976 119.575,29.326" style="fill:none;stroke-width:0.050000mm;stroke:blue"/>
<polygon points="123.176,29.326 123.176,41.976 138.626,41.976 138.626,29.326" style="fill:none;stroke-width:0.050000mm;stroke:blue"/>
<polygon points="142.226,29.326 142.226,41.976 157.676,41.976 157.676,29.326" style="fill:none;stroke-width:0.050000mm;stroke:blue"/>
<polygon points="161.276,29.326 161.276,41.976 176.726,41.976 176.726,29.326" style="fill:none;stroke-width:0.050000mm;stroke:blue"/>
<polygon points="180.326,29.326 180.326,41.976 195.776,41.976 195.776,29.326" style="fill:none;stroke-width:0.050000mm;stroke:blue"/>
<polygon points="199.376,29.326 199.376,41.976 214.826,41.976 214.826,29.326" style="fill:none;stroke-width:0.050000mm;stroke:blue"/>
<polygon points="218.426,29.326 218.426,41.976 233.876,41.976 233.876,29.326" style="fill:none;stroke-width:0.050000mm;stroke:blue"/>
<polygon points="8.876,10.276 8.876,22.926 24.326,22.926 24.326,10.276" style="fill:none;stroke-width:0.050000mm;stroke:blue"/>
<polygon points="27.926,10.276 27.926,22.926 43.376,22.926 43.376,10.276" style="fill:none;stroke-width:0.050000mm;stroke:blue"/>
<polygon points="46.976,10.276 46.976,22.926 62.426,22.926 62.426,10.276" style="fill:none;stroke-width:0.050000mm;stroke:blue"/>
<polygon points="66.026,10.276 66.026,22.926 81.476,22.926 81.476,10.276" style="fill:none;stroke-width:0.050000mm;stroke:blue"/>
<polygon points="85.076,10.276 85.076,22.926 100.525,22.926 100.525,10.276" style="fill:none;stroke-width:0.050000mm;stroke:blue"/>
<polygon points="104.126,10.276 104.126,22.926 119.575,22.926 119.575,10.276" style="fill:none;stroke-width:0.050000mm;stroke:blue"/>
<polygon points="123.176,10.276 123.176,22.926 138.626,22.926 138.626,10.276" style="fill:none;stroke-width:0.050000mm;stroke:blue"/>
<polygon points="142.226,10.276 142.226,22.926 157.676,22.926 157.676,10.276" style="fill:none;stroke-width:0.050000mm;stroke:blue"/>
<polygon points="161.276,10.276 161.276,22.926 176.726,22.926 176.726,10.276" style="fill:none;stroke-width:0.050000mm;stroke:blue"/>
<polygon points="180.326,10.276 180.326,22.926 195.776,22.926 195.776,10.276" style="fill:none;stroke-width:0.050000mm;stroke:blue"/>
<polygon points="199.376,10.276 199.376,22.926 214.826,22.926 214.826,10.276" style="fill:none;stroke-width:0.050000mm;stroke:blue"/>
<polygon points="218.426,10.276 218.426,22.926 233.876,22.926 233.876,10.276" style="fill:none;stroke-width:0.050000mm;stroke:blue"/>
</svg>
