<?xml version="1.0"?>
<!-- Generated by SVGo -->
<svg width="254.752mm" height="102.352mm"
     viewBox="0.000 0.000 254.752 102.352"
     xmlns="http://www.w3.org/2000/svg" 
     xmlns:xlink="http://www.w3.org/1999/xlink">
<polygon points="122.451,5.000 122.451,13.150 13.151,13.150 13.151,89.202 241.602,89.202 241.602,13.150 132.301,13.150 132.301,5.001 247.752,5.001 247.908,5.007 248.064,5.025 248.218,5.056 248.370,5.098 248.517,5.153 248.659,5.218 248.796,5.295 248.927,5.382 249.050,5.480 249.166,5.586 249.272,5.702 249.370,5.825 249.457,5.956 249.534,6.093 249.599,6.235 249.654,6.382 249.696,6.534 249.727,6.688 249.745,6.844 249.752,7.001 249.752,95.352 249.745,95.508 249.727,95.664 249.696,95.818 249.654,95.970 249.599,96.117 249.534,96.259 249.457,96.396 249.370,96.527 249.272,96.650 249.166,96.766 249.050,96.872 248.927,96.970 248.796,97.057 248.659,97.134 248.517,97.199 248.370,97.254 248.218,97.296 248.064,97.327 247.908,97.345 247.752,97.351 7.001,97.352 6.844,97.345 6.688,97.327 6.534,97.296 6.382,97.254 6.235,97.199 6.093,97.134 5.956,97.057 5.825,96.970 5.702,96.872 5.586,96.766 5.480,96.650 5.382,96.527 5.295,96.396 5.218,96.259 5.153,96.117 5.098,95.970 5.056,95.818 5.025,95.664 5.007,95.508 5.000,95.352 5.001,7.001 5.007,6.844 5.025,6.688 5.056,6.534 5.098,6.382 5.153,6.235 5.218,6.093 5.295,5.956 5.382,5.825 5.480,5.702 5.586,5.586 5.702,5.480 5.825,5.382 5.956,5.295 6.093,5.218 6.235,5.153 6.382,5.098 6.534,5.056 6.688,5.025 6.844,5.007 7.001,5.000" style="fill:none;stroke-width:0.050000mm;stroke:blue"/>
<polygon points="245.375,92.349 245.103,92.488 244.888,92.703 244.749,92.975 244.702,93.277 244.749,93.578 244.888,93.850 245.103,94.065 245.375,94.204 245.677,94.251 245.978,94.204 246.250,94.065 246.465,93.850 246.604,93.578 246.652,93.277 246.604,92.975 246.465,92.703 246.250,92.488 245.978,92.349 245.677,92.302" style="fill:none;stroke-width:0.050000mm;stroke:blue"/>
<polygon points="166.508,92.349 166.236,92.488 166.021,92.703 165.882,92.975 165.835,93.277 165.882,93.578 166.021,93.850 166.236,94.065 166.508,94.204 166.810,94.251 167.111,94.204 167.383,94.065 167.598,93.850 167.737,93.578 167.785,93.277 167.737,92.975 167.598,92.703 167.383,92.488 167.111,92.349 166.810,92.302" style="fill:none;stroke-width:0.050000mm;stroke:blue"/>
<polygon points="87.641,92.349 87.369,92.488 87.154,92.703 87.015,92.975 86.968,93.277 87.015,93.578 87.154,93.850 87.369,94.065 87.641,94.204 87.943,94.251 88.244,94.204 88.516,94.065 88.731,93.850 88.870,93.578 88.918,93.277 88.870,92.975 88.731,92.703 88.516,92.488 88.244,92.349 87.943,92.302" style="fill:none;stroke-width:0.050000mm;stroke:blue"/>
<polygon points="8.774,92.349 8.502,92.488 8.287,92.703 8.148,92.975 8.101,93.277 8.148,93.578 8.287,93.850 8.502,94.065 8.774,94.204 9.076,94.251 9.377,94.204 9.649,94.065 9.864,93.850 10.003,93.578 10.051,93.277 10.003,92.975 9.864,92.703 9.649,92.488 9.377,92.349 9.076,92.302" style="fill:none;stroke-width:0.050000mm;stroke:blue"/>
<polygon points="245.375,50.249 245.103,50.387 244.888,50.603 244.749,50.875 244.702,51.176 244.749,51.477 244.888,51.749 245.103,51.965 245.375,52.103 245.677,52.151 245.978,52.103 246.250,51.965 246.465,51.749 246.604,51.477 246.652,51.176 246.604,50.875 246.465,50.603 246.250,50.387 245.978,50.249 245.677,50.201" style="fill:none;stroke-width:0.050000mm;stroke:blue"/>
<polygon points="8.774,50.249 8.502,50.387 8.287,50.603 8.148,50.875 8.101,51.176 8.148,51.477 8.287,51.749 8.502,51.965 8.774,52.103 9.076,52.151 9.377,52.103 9.649,51.965 9.864,51.749 10.003,51.477 10.051,51.176 10.003,50.875 9.864,50.603 9.649,50.387 9.377,50.249 9.076,50.201" style="fill:none;stroke-width:0.050000mm;stroke:blue"/>
<polygon points="8.774,8.148 8.502,8.287 8.287,8.502 8.148,8.774 8.101,9.076 8.148,9.377 8.287,9.649 8.502,9.864 8.774,10.003 9.076,10.051 9.377,10.003 9.649,9.864 9.864,9.649 10.003,9.377 10.051,9.076 10.003,8.774 9.864,8.502 9.649,8.287 9.377,8.148 9.076,8.101" style="fill:none;stroke-width:0.050000mm;stroke:blue"/>
<polygon points="87.641,8.148 87.369,8.287 87.154,8.502 87.015,8.774 86.968,9.076 87.015,9.377 87.154,9.649 87.369,9.864 87.641,10.003 87.943,10.050 88.244,10.003 88.516,9.864 88.731,9.649 88.870,9.377 88.918,9.076 88.870,8.774 88.731,8.502 88.516,8.287 88.244,8.148 87.943,8.101" style="fill:none;stroke-width:0.050000mm;stroke:blue"/>
<polygon points="166.508,8.148 166.236,8.287 166.021,8.502 165.882,8.774 165.835,9.076 165.882,9.377 166.021,9.649 166.236,9.864 166.508,10.003 166.810,10.050 167.111,10.003 167.383,9.864 167.598,9.649 167.737,9.377 167.785,9.076 167.737,8.774 167.598,8.502 167.383,8.287 167.111,8.148 166.810,8.101" style="fill:none;stroke-width:0.050000mm;stroke:blue"/>
<polygon points="245.375,8.148 245.103,8.287 244.888,8.502 244.749,8.774 244.702,9.076 244.749,9.377 244.888,9.649 245.103,9.864 245.375,10.003 245.677,10.050 245.978,10.003 246.250,9.864 246.465,9.649 246.604,9.377 246.652,9.076 246.604,8.774 246.465,8.502 246.250,8.287 245.978,8.148 245.677,8.101" style="fill:none;stroke-width:0.050000mm;stroke:blue"/>
</svg>
