<?xml version="1.0"?>
<!-- Generated by SVGo -->
<svg width="311.902mm" height="121.402mm"
     viewBox="0.000 0.000 311.902 121.402"
     xmlns="http://www.w3.org/2000/svg" 
     xmlns:xlink="http://www.w3.org/1999/xlink">
<polygon points="304.902,5.001 305.058,5.007 305.214,5.025 305.368,5.056 305.520,5.098 305.667,5.153 305.809,5.218 305.946,5.295 306.077,5.382 306.200,5.480 306.316,5.586 306.422,5.702 306.520,5.825 306.607,5.956 306.684,6.093 306.749,6.235 306.804,6.382 306.846,6.534 306.877,6.688 306.895,6.844 306.902,7.001 306.902,114.402 306.895,114.558 306.877,114.714 306.846,114.868 306.804,115.020 306.749,115.167 306.684,115.309 306.607,115.446 306.520,115.577 306.422,115.700 306.316,115.816 306.200,115.922 306.077,116.020 305.946,116.107 305.809,116.184 305.667,116.249 305.520,116.304 305.368,116.346 305.214,116.377 305.058,116.395 304.901,116.401 7.001,116.402 6.844,116.395 6.688,116.377 6.534,116.346 6.382,116.304 6.235,116.249 6.093,116.184 5.956,116.107 5.825,116.020 5.702,115.922 5.586,115.816 5.480,115.700 5.382,115.577 5.295,115.446 5.218,115.309 5.153,115.167 5.098,115.020 5.056,114.868 5.025,114.714 5.007,114.558 5.000,114.402 5.001,7.001 5.007,6.844 5.025,6.688 5.056,6.534 5.098,6.382 5.153,6.235 5.218,6.093 5.295,5.956 5.382,5.825 5.480,5.702 5.586,5.586 5.702,5.480 5.825,5.382 5.956,5.295 6.093,5.218 6.235,5.153 6.382,5.098 6.534,5.056 6.688,5.025 6.844,5.007 7.001,5.000" style="fill:none;stroke-width:0.050000mm;stroke:blue"/>
<polygon points="302.525,111.399 302.253,111.538 302.038,111.753 301.899,112.025 301.852,112.327 301.899,112.628 302.038,112.900 302.253,113.115 302.525,113.254 302.827,113.301 303.128,113.254 303.400,113.115 303.615,112.900 303.754,112.628 303.802,112.327 303.754,112.025 303.615,111.753 303.400,111.538 303.128,111.399 302.827,111.352" style="fill:none;stroke-width:0.050000mm;stroke:blue"/>
<polygon points="204.608,111.399 204.336,111.538 204.121,111.753 203.982,112.025 203.935,112.327 203.982,112.628 204.121,112.900 204.336,113.115 204.608,113.254 204.910,113.301 205.211,113.254 205.483,113.115 205.698,112.900 205.837,112.628 205.885,112.327 205.837,112.025 205.698,111.753 205.483,111.538 205.211,111.399 204.910,111.352" style="fill:none;stroke-width:0.050000mm;stroke:blue"/>
<polygon points="106.691,111.399 106.419,111.538 106.204,111.753 106.065,112.025 106.018,112.327 106.065,112.628 106.204,112.900 106.419,113.115 106.691,113.254 106.993,113.301 107.294,113.254 107.566,113.115 107.781,112.900 107.920,112.628 107.968,112.327 107.920,112.025 107.781,111.753 107.566,111.538 107.294,111.399 106.993,111.352" style="fill:none;stroke-width:0.050000mm;stroke:blue"/>
<polygon points="8.774,111.399 8.502,111.538 8.287,111.753 8.148,112.025 8.100,112.327 8.148,112.628 8.287,112.900 8.502,113.115 8.774,113.254 9.075,113.301 9.377,113.254 9.649,113.115 9.864,112.900 10.003,112.628 10.050,112.327 10.003,112.025 9.864,111.753 9.649,111.538 9.377,111.399 9.075,111.352" style="fill:none;stroke-width:0.050000mm;stroke:blue"/>
<polygon points="137.119,91.876 137.119,92.876 136.319,92.876 136.319,95.826 137.119,95.826 137.119,96.576 97.344,96.576 97.344,93.346 95.619,93.346 95.619,92.426 92.469,92.426 92.469,93.346 90.744,93.346 90.744,96.576 89.919,96.576 89.919,99.226 90.744,99.226 90.744,105.495 92.469,105.495 92.469,106.476 95.619,106.476 95.619,105.495 97.344,105.495 97.344,101.025 137.119,101.025 137.119,101.775 136.319,101.775 136.319,104.726 137.119,104.726 137.119,105.726 150.969,105.726 150.969,104.726 151.769,104.726 151.769,101.775 150.969,101.775 150.969,101.025 190.744,101.025 190.744,105.495 192.469,105.495 192.469,106.476 195.619,106.476 195.619,105.495 197.344,105.495 197.344,99.226 198.169,99.226 198.169,96.576 197.344,96.576 197.344,93.346 195.619,93.346 195.619,92.426 192.469,92.426 192.469,93.346 190.744,93.346 190.744,96.576 150.969,96.576 150.969,95.826 151.769,95.826 151.769,92.876 150.969,92.876 150.969,91.876" style="fill:none;stroke-width:0.050000mm;stroke:blue"/>
<polygon points="18.057,91.876 18.057,92.876 17.257,92.876 17.257,95.826 18.057,95.826 18.057,101.775 17.257,101.775 17.257,104.726 18.057,104.726 18.057,105.726 31.907,105.726 31.907,104.726 32.707,104.726 32.707,101.775 31.907,101.775 31.907,95.826 32.707,95.826 32.707,92.876 31.907,92.876 31.907,91.876" style="fill:none;stroke-width:0.050000mm;stroke:blue"/>
<polygon points="41.869,91.876 41.869,92.876 41.069,92.876 41.069,95.826 41.869,95.826 41.869,101.775 41.069,101.775 41.069,104.726 41.869,104.726 41.869,105.726 55.719,105.726 55.719,104.726 56.519,104.726 56.519,101.775 55.719,101.775 55.719,95.826 56.519,95.826 56.519,92.876 55.719,92.876 55.719,91.876" style="fill:none;stroke-width:0.050000mm;stroke:blue"/>
<polygon points="65.682,91.876 65.682,92.876 64.882,92.876 64.882,95.826 65.682,95.826 65.682,101.775 64.882,101.775 64.882,104.726 65.682,104.726 65.682,105.726 79.532,105.726 79.532,104.726 80.332,104.726 80.332,101.775 79.532,101.775 79.532,95.826 80.332,95.826 80.332,92.876 79.532,92.876 79.532,91.876" style="fill:none;stroke-width:0.050000mm;stroke:blue"/>
<polygon points="208.557,91.876 208.557,92.876 207.757,92.876 207.757,95.826 208.557,95.826 208.557,101.775 207.757,101.775 207.757,104.726 208.557,104.726 208.557,105.726 222.407,105.726 222.407,104.726 223.207,104.726 223.207,101.775 222.407,101.775 222.407,95.826 223.207,95.826 223.207,92.876 222.407,92.876 222.407,91.876" style="fill:none;stroke-width:0.050000mm;stroke:blue"/>
<polygon points="232.369,91.876 232.369,92.876 231.569,92.876 231.569,95.826 232.369,95.826 232.369,101.775 231.569,101.775 231.569,104.726 232.369,104.726 232.369,105.726 246.219,105.726 246.219,104.726 247.019,104.726 247.019,101.775 246.219,101.775 246.219,95.826 247.019,95.826 247.019,92.876 246.219,92.876 246.219,91.876" style="fill:none;stroke-width:0.050000mm;stroke:blue"/>
<polygon points="256.181,91.876 256.181,92.876 255.382,92.876 255.382,95.826 256.181,95.826 256.181,101.775 255.382,101.775 255.382,104.726 256.181,104.726 256.181,105.726 270.032,105.726 270.032,104.726 270.832,104.726 270.832,101.775 270.032,101.775 270.032,95.826 270.832,95.826 270.832,92.876 270.032,92.876 270.032,91.876" style="fill:none;stroke-width:0.050000mm;stroke:blue"/>
<polygon points="279.994,91.876 279.994,92.876 279.194,92.876 279.194,95.826 279.994,95.826 279.994,101.775 279.194,101.775 279.194,104.726 279.994,104.726 279.994,105.726 293.844,105.726 293.844,104.726 294.644,104.726 294.644,101.775 293.844,101.775 293.844,95.826 294.644,95.826 294.644,92.876 293.844,92.876 293.844,91.876" style="fill:none;stroke-width:0.050000mm;stroke:blue"/>
<polygon points="27.582,72.826 27.582,73.826 26.782,73.826 26.782,76.776 27.582,76.776 27.582,77.526 25.907,77.526 25.907,74.296 24.182,74.296 24.182,73.376 21.032,73.376 21.032,74.296 19.307,74.296 19.307,77.526 18.482,77.526 18.482,80.176 19.307,80.176 19.307,86.446 21.032,86.446 21.032,87.426 24.182,87.426 24.182,86.446 25.907,86.446 25.907,81.976 27.582,81.976 27.582,82.726 26.782,82.726 26.782,85.676 27.582,85.676 27.582,86.676 41.432,86.676 41.432,85.676 42.232,85.676 42.232,82.726 41.432,82.726 41.432,81.976 43.107,81.976 43.107,86.446 44.832,86.446 44.832,87.426 47.982,87.426 47.982,86.446 49.707,86.446 49.707,80.176 50.532,80.176 50.532,77.526 49.707,77.526 49.707,74.296 47.982,74.296 47.982,73.376 44.832,73.376 44.832,74.296 43.107,74.296 43.107,77.526 41.432,77.526 41.432,76.776 42.232,76.776 42.232,73.826 41.432,73.826 41.432,72.826" style="fill:none;stroke-width:0.050000mm;stroke:blue"/>
<polygon points="265.707,72.826 265.707,73.826 264.907,73.826 264.907,76.776 265.707,76.776 265.707,77.526 264.032,77.526 264.032,74.296 262.307,74.296 262.307,73.376 259.157,73.376 259.157,74.296 257.431,74.296 257.431,77.526 256.607,77.526 256.607,80.176 257.431,80.176 257.431,86.446 259.157,86.446 259.157,87.426 262.307,87.426 262.307,86.446 264.032,86.446 264.032,81.976 265.707,81.976 265.707,82.726 264.907,82.726 264.907,85.676 265.707,85.676 265.707,86.676 279.557,86.676 279.557,85.676 280.357,85.676 280.357,82.726 279.557,82.726 279.557,81.976 281.232,81.976 281.232,86.446 282.957,86.446 282.957,87.426 286.107,87.426 286.107,86.446 287.832,86.446 287.832,80.176 288.657,80.176 288.657,77.526 287.832,77.526 287.832,74.296 286.107,74.296 286.107,73.376 282.957,73.376 282.957,74.296 281.232,74.296 281.232,77.526 279.557,77.526 279.557,76.776 280.357,76.776 280.357,73.826 279.557,73.826 279.557,72.826" style="fill:none;stroke-width:0.050000mm;stroke:blue"/>
<polygon points="58.538,72.826 58.538,73.826 57.738,73.826 57.738,76.776 58.538,76.776 58.538,82.726 57.738,82.726 57.738,85.676 58.538,85.676 58.538,86.676 72.388,86.676 72.388,85.676 73.188,85.676 73.188,82.726 72.388,82.726 72.388,76.776 73.188,76.776 73.188,73.826 72.388,73.826 72.388,72.826" style="fill:none;stroke-width:0.050000mm;stroke:blue"/>
<polygon points="77.588,72.826 77.588,73.826 76.788,73.826 76.788,76.776 77.588,76.776 77.588,82.726 76.788,82.726 76.788,85.676 77.588,85.676 77.588,86.676 91.438,86.676 91.438,85.676 92.238,85.676 92.238,82.726 91.438,82.726 91.438,76.776 92.238,76.776 92.238,73.826 91.438,73.826 91.438,72.826" style="fill:none;stroke-width:0.050000mm;stroke:blue"/>
<polygon points="96.638,72.826 96.638,73.826 95.838,73.826 95.838,76.776 96.638,76.776 96.638,82.726 95.838,82.726 95.838,85.676 96.638,85.676 96.638,86.676 110.488,86.676 110.488,85.676 111.288,85.676 111.288,82.726 110.488,82.726 110.488,76.776 111.288,76.776 111.288,73.826 110.488,73.826 110.488,72.826" style="fill:none;stroke-width:0.050000mm;stroke:blue"/>
<polygon points="115.688,72.826 115.688,73.826 114.888,73.826 114.888,76.776 115.688,76.776 115.688,82.726 114.888,82.726 114.888,85.676 115.688,85.676 115.688,86.676 129.538,86.676 129.538,85.676 130.337,85.676 130.337,82.726 129.538,82.726 129.538,76.776 130.337,76.776 130.337,73.826 129.538,73.826 129.538,72.826" style="fill:none;stroke-width:0.050000mm;stroke:blue"/>
<polygon points="134.738,72.826 134.738,73.826 133.938,73.826 133.938,76.776 134.738,76.776 134.738,82.726 133.938,82.726 133.938,85.676 134.738,85.676 134.738,86.676 148.588,86.676 148.588,85.676 149.388,85.676 149.388,82.726 148.588,82.726 148.588,76.776 149.388,76.776 149.388,73.826 148.588,73.826 148.588,72.826" style="fill:none;stroke-width:0.050000mm;stroke:blue"/>
<polygon points="153.788,72.826 153.788,73.826 152.988,73.826 152.988,76.776 153.788,76.776 153.788,82.726 152.988,82.726 152.988,85.676 153.788,85.676 153.788,86.676 167.638,86.676 167.638,85.676 168.438,85.676 168.438,82.726 167.638,82.726 167.638,76.776 168.438,76.776 168.438,73.826 167.638,73.826 167.638,72.826" style="fill:none;stroke-width:0.050000mm;stroke:blue"/>
<polygon points="172.838,72.826 172.838,73.826 172.038,73.826 172.038,76.776 172.838,76.776 172.838,82.726 172.038,82.726 172.038,85.676 172.838,85.676 172.838,86.676 186.688,86.676 186.688,85.676 187.488,85.676 187.488,82.726 186.688,82.726 186.688,76.776 187.488,76.776 187.488,73.826 186.688,73.826 186.688,72.826" style="fill:none;stroke-width:0.050000mm;stroke:blue"/>
<polygon points="191.888,72.826 191.888,73.826 191.088,73.826 191.088,76.776 191.888,76.776 191.888,82.726 191.088,82.726 191.088,85.676 191.888,85.676 191.888,86.676 205.738,86.676 205.738,85.676 206.538,85.676 206.538,82.726 205.738,82.726 205.738,76.776 206.538,76.776 206.538,73.826 205.738,73.826 205.738,72.826" style="fill:none;stroke-width:0.050000mm;stroke:blue"/>
<polygon points="210.938,72.826 210.938,73.826 210.138,73.826 210.138,76.776 210.938,76.776 210.938,82.726 210.138,82.726 210.138,85.676 210.938,85.676 210.938,86.676 224.788,86.676 224.788,85.676 225.588,85.676 225.588,82.726 224.788,82.726 224.788,76.776 225.588,76.776 225.588,73.826 224.788,73.826 224.788,72.826" style="fill:none;stroke-width:0.050000mm;stroke:blue"/>
<polygon points="229.988,72.826 229.988,73.826 229.188,73.826 229.188,76.776 229.988,76.776 229.988,82.726 229.188,82.726 229.188,85.676 229.988,85.676 229.988,86.676 243.838,86.676 243.838,85.676 244.638,85.676 244.638,82.726 243.838,82.726 243.838,76.776 244.638,76.776 244.638,73.826 243.838,73.826 243.838,72.826" style="fill:none;stroke-width:0.050000mm;stroke:blue"/>
<polygon points="270.469,53.776 270.469,54.776 269.669,54.776 269.669,57.726 270.469,57.726 270.469,58.476 268.794,58.476 268.794,55.246 267.069,55.246 267.069,54.326 263.919,54.326 263.919,55.246 262.194,55.246 262.194,58.476 261.369,58.476 261.369,61.126 262.194,61.126 262.194,67.396 263.919,67.396 263.919,68.376 267.069,68.376 267.069,67.396 268.794,67.396 268.794,62.926 270.469,62.926 270.469,63.676 269.669,63.676 269.669,66.626 270.469,66.626 270.469,67.626 284.319,67.626 284.319,66.626 285.119,66.626 285.119,63.676 284.319,63.676 284.319,62.926 285.994,62.926 285.994,67.396 287.719,67.396 287.719,68.376 290.869,68.376 290.869,67.396 292.594,67.396 292.594,61.126 293.419,61.126 293.419,58.476 292.594,58.476 292.594,55.246 290.869,55.246 290.869,54.326 287.719,54.326 287.719,55.246 285.994,55.246 285.994,58.476 284.319,58.476 284.319,57.726 285.119,57.726 285.119,54.776 284.319,54.776 284.319,53.776" style="fill:none;stroke-width:0.050000mm;stroke:blue"/>
<polygon points="22.819,53.776 22.819,54.776 22.019,54.776 22.019,57.726 22.819,57.726 22.819,63.676 22.019,63.676 22.019,66.626 22.819,66.626 22.819,67.626 36.669,67.626 36.669,66.626 37.469,66.626 37.469,63.676 36.669,63.676 36.669,57.726 37.469,57.726 37.469,54.776 36.669,54.776 36.669,53.776" style="fill:none;stroke-width:0.050000mm;stroke:blue"/>
<polygon points="49.013,53.776 49.013,54.776 48.213,54.776 48.213,57.726 49.013,57.726 49.013,63.676 48.213,63.676 48.213,66.626 49.013,66.626 49.013,67.626 62.863,67.626 62.863,66.626 63.663,66.626 63.663,63.676 62.863,63.676 62.863,57.726 63.663,57.726 63.663,54.776 62.863,54.776 62.863,53.776" style="fill:none;stroke-width:0.050000mm;stroke:blue"/>
<polygon points="68.063,53.776 68.063,54.776 67.263,54.776 67.263,57.726 68.063,57.726 68.063,63.676 67.263,63.676 67.263,66.626 68.063,66.626 68.063,67.626 81.913,67.626 81.913,66.626 82.713,66.626 82.713,63.676 81.913,63.676 81.913,57.726 82.713,57.726 82.713,54.776 81.913,54.776 81.913,53.776" style="fill:none;stroke-width:0.050000mm;stroke:blue"/>
<polygon points="87.113,53.776 87.113,54.776 86.313,54.776 86.313,57.726 87.113,57.726 87.113,63.676 86.313,63.676 86.313,66.626 87.113,66.626 87.113,67.626 100.963,67.626 100.963,66.626 101.763,66.626 101.763,63.676 100.963,63.676 100.963,57.726 101.763,57.726 101.763,54.776 100.963,54.776 100.963,53.776" style="fill:none;stroke-width:0.050000mm;stroke:blue"/>
<polygon points="106.163,53.776 106.163,54.776 105.363,54.776 105.363,57.726 106.163,57.726 106.163,63.676 105.363,63.676 105.363,66.626 106.163,66.626 106.163,67.626 120.013,67.626 120.013,66.626 120.813,66.626 120.813,63.676 120.013,63.676 120.013,57.726 120.813,57.726 120.813,54.776 120.013,54.776 120.013,53.776" style="fill:none;stroke-width:0.050000mm;stroke:blue"/>
<polygon points="125.213,53.776 125.213,54.776 124.413,54.776 124.413,57.726 125.213,57.726 125.213,63.676 124.413,63.676 124.413,66.626 125.213,66.626 125.213,67.626 139.063,67.626 139.063,66.626 139.863,66.626 139.863,63.676 139.063,63.676 139.063,57.726 139.863,57.726 139.863,54.776 139.063,54.776 139.063,53.776" style="fill:none;stroke-width:0.050000mm;stroke:blue"/>
<polygon points="144.263,53.776 144.263,54.776 143.463,54.776 143.463,57.726 144.263,57.726 144.263,63.676 143.463,63.676 143.463,66.626 144.263,66.626 144.263,67.626 158.113,67.626 158.113,66.626 158.913,66.626 158.913,63.676 158.113,63.676 158.113,57.726 158.913,57.726 158.913,54.776 158.113,54.776 158.113,53.776" style="fill:none;stroke-width:0.050000mm;stroke:blue"/>
<polygon points="163.313,53.776 163.313,54.776 162.513,54.776 162.513,57.726 163.313,57.726 163.313,63.676 162.513,63.676 162.513,66.626 163.313,66.626 163.313,67.626 177.163,67.626 177.163,66.626 177.963,66.626 177.963,63.676 177.163,63.676 177.163,57.726 177.963,57.726 177.963,54.776 177.163,54.776 177.163,53.776" style="fill:none;stroke-width:0.050000mm;stroke:blue"/>
<polygon points="182.363,53.776 182.363,54.776 181.563,54.776 181.563,57.726 182.363,57.726 182.363,63.676 181.563,63.676 181.563,66.626 182.363,66.626 182.363,67.626 196.213,67.626 196.213,66.626 197.013,66.626 197.013,63.676 196.213,63.676 196.213,57.726 197.013,57.726 197.013,54.776 196.213,54.776 196.213,53.776" style="fill:none;stroke-width:0.050000mm;stroke:blue"/>
<polygon points="201.413,53.776 201.413,54.776 200.613,54.776 200.613,57.726 201.413,57.726 201.413,63.676 200.613,63.676 200.613,66.626 201.413,66.626 201.413,67.626 215.263,67.626 215.263,66.626 216.063,66.626 216.063,63.676 215.263,63.676 215.263,57.726 216.063,57.726 216.063,54.776 215.263,54.776 215.263,53.776" style="fill:none;stroke-width:0.050000mm;stroke:blue"/>
<polygon points="220.463,53.776 220.463,54.776 219.663,54.776 219.663,57.726 220.463,57.726 220.463,63.676 219.663,63.676 219.663,66.626 220.463,66.626 220.463,67.626 234.313,67.626 234.313,66.626 235.113,66.626 235.113,63.676 234.313,63.676 234.313,57.726 235.113,57.726 235.113,54.776 234.313,54.776 234.313,53.776" style="fill:none;stroke-width:0.050000mm;stroke:blue"/>
<polygon points="239.513,53.776 239.513,54.776 238.713,54.776 238.713,57.726 239.513,57.726 239.513,63.676 238.713,63.676 238.713,66.626 239.513,66.626 239.513,67.626 253.363,67.626 253.363,66.626 254.163,66.626 254.163,63.676 253.363,63.676 253.363,57.726 254.163,57.726 254.163,54.776 253.363,54.776 253.363,53.776" style="fill:none;stroke-width:0.050000mm;stroke:blue"/>
<polygon points="302.525,59.774 302.253,59.912 302.038,60.128 301.899,60.400 301.852,60.701 301.899,61.002 302.038,61.274 302.253,61.490 302.525,61.628 302.827,61.676 303.128,61.628 303.400,61.490 303.615,61.274 303.754,61.002 303.802,60.701 303.754,60.400 303.615,60.128 303.400,59.912 303.128,59.774 302.827,59.726" style="fill:none;stroke-width:0.050000mm;stroke:blue"/>
<polygon points="8.774,59.774 8.502,59.912 8.287,60.128 8.148,60.400 8.100,60.701 8.148,61.002 8.287,61.274 8.502,61.490 8.774,61.628 9.075,61.676 9.377,61.628 9.649,61.490 9.864,61.274 10.003,61.002 10.050,60.701 10.003,60.400 9.864,60.128 9.649,59.912 9.377,59.774 9.075,59.726" style="fill:none;stroke-width:0.050000mm;stroke:blue"/>
<polygon points="20.438,34.726 20.438,35.726 19.638,35.726 19.638,38.676 20.438,38.676 20.438,44.626 19.638,44.626 19.638,47.576 20.438,47.576 20.438,48.576 34.288,48.576 34.288,47.576 35.088,47.576 35.088,44.626 34.288,44.626 34.288,38.676 35.088,38.676 35.088,35.726 34.288,35.726 34.288,34.726" style="fill:none;stroke-width:0.050000mm;stroke:blue"/>
<polygon points="44.251,34.726 44.251,35.726 43.450,35.726 43.450,38.676 44.251,38.676 44.251,44.626 43.450,44.626 43.450,47.576 44.251,47.576 44.251,48.576 58.100,48.576 58.100,47.576 58.901,47.576 58.901,44.626 58.100,44.626 58.100,38.676 58.901,38.676 58.901,35.726 58.100,35.726 58.100,34.726" style="fill:none;stroke-width:0.050000mm;stroke:blue"/>
<polygon points="63.301,34.726 63.301,35.726 62.500,35.726 62.500,38.676 63.301,38.676 63.301,44.626 62.500,44.626 62.500,47.576 63.301,47.576 63.301,48.576 77.150,48.576 77.150,47.576 77.950,47.576 77.950,44.626 77.150,44.626 77.150,38.676 77.950,38.676 77.950,35.726 77.150,35.726 77.150,34.726" style="fill:none;stroke-width:0.050000mm;stroke:blue"/>
<polygon points="82.351,34.726 82.351,35.726 81.551,35.726 81.551,38.676 82.351,38.676 82.351,44.626 81.551,44.626 81.551,47.576 82.351,47.576 82.351,48.576 96.200,48.576 96.200,47.576 97.000,47.576 97.000,44.626 96.200,44.626 96.200,38.676 97.000,38.676 97.000,35.726 96.200,35.726 96.200,34.726" style="fill:none;stroke-width:0.050000mm;stroke:blue"/>
<polygon points="101.400,34.726 101.400,35.726 100.601,35.726 100.601,38.676 101.400,38.676 101.400,44.626 100.601,44.626 100.601,47.576 101.400,47.576 101.400,48.576 115.250,48.576 115.250,47.576 116.050,47.576 116.050,44.626 115.250,44.626 115.250,38.676 116.050,38.676 116.050,35.726 115.250,35.726 115.250,34.726" style="fill:none;stroke-width:0.050000mm;stroke:blue"/>
<polygon points="120.450,34.726 120.450,35.726 119.650,35.726 119.650,38.676 120.450,38.676 120.450,44.626 119.650,44.626 119.650,47.576 120.450,47.576 120.450,48.576 134.300,48.576 134.300,47.576 135.101,47.576 135.101,44.626 134.300,44.626 134.300,38.676 135.101,38.676 135.101,35.726 134.300,35.726 134.300,34.726" style="fill:none;stroke-width:0.050000mm;stroke:blue"/>
<polygon points="139.500,34.726 139.500,35.726 138.701,35.726 138.701,38.676 139.500,38.676 139.500,44.626 138.701,44.626 138.701,47.576 139.500,47.576 139.500,48.576 153.351,48.576 153.351,47.576 154.150,47.576 154.150,44.626 153.351,44.626 153.351,38.676 154.150,38.676 154.150,35.726 153.351,35.726 153.351,34.726" style="fill:none;stroke-width:0.050000mm;stroke:blue"/>
<polygon points="158.550,34.726 158.550,35.726 157.751,35.726 157.751,38.676 158.550,38.676 158.550,44.626 157.751,44.626 157.751,47.576 158.550,47.576 158.550,48.576 172.401,48.576 172.401,47.576 173.201,47.576 173.201,44.626 172.401,44.626 172.401,38.676 173.201,38.676 173.201,35.726 172.401,35.726 172.401,34.726" style="fill:none;stroke-width:0.050000mm;stroke:blue"/>
<polygon points="177.601,34.726 177.601,35.726 176.801,35.726 176.801,38.676 177.601,38.676 177.601,44.626 176.801,44.626 176.801,47.576 177.601,47.576 177.601,48.576 191.451,48.576 191.451,47.576 192.251,47.576 192.251,44.626 191.451,44.626 191.451,38.676 192.251,38.676 192.251,35.726 191.451,35.726 191.451,34.726" style="fill:none;stroke-width:0.050000mm;stroke:blue"/>
<polygon points="196.651,34.726 196.651,35.726 195.851,35.726 195.851,38.676 196.651,38.676 196.651,44.626 195.851,44.626 195.851,47.576 196.651,47.576 196.651,48.576 210.501,48.576 210.501,47.576 211.301,47.576 211.301,44.626 210.501,44.626 210.501,38.676 211.301,38.676 211.301,35.726 210.501,35.726 210.501,34.726" style="fill:none;stroke-width:0.050000mm;stroke:blue"/>
<polygon points="215.701,34.726 215.701,35.726 214.901,35.726 214.901,38.676 215.701,38.676 215.701,44.626 214.901,44.626 214.901,47.576 215.701,47.576 215.701,48.576 229.551,48.576 229.551,47.576 230.351,47.576 230.351,44.626 229.551,44.626 229.551,38.676 230.351,38.676 230.351,35.726 229.551,35.726 229.551,34.726" style="fill:none;stroke-width:0.050000mm;stroke:blue"/>
<polygon points="234.751,34.726 234.751,35.726 233.951,35.726 233.951,38.676 234.751,38.676 234.751,44.626 233.951,44.626 233.951,47.576 234.751,47.576 234.751,48.576 248.601,48.576 248.601,47.576 249.401,47.576 249.401,44.626 248.601,44.626 248.601,38.676 249.401,38.676 249.401,35.726 248.601,35.726 248.601,34.726" style="fill:none;stroke-width:0.050000mm;stroke:blue"/>
<polygon points="253.801,34.726 253.801,35.726 253.001,35.726 253.001,38.676 253.801,38.676 253.801,44.626 253.001,44.626 253.001,47.576 253.801,47.576 253.801,48.576 267.651,48.576 267.651,47.576 268.451,47.576 268.451,44.626 267.651,44.626 267.651,38.676 268.451,38.676 268.451,35.726 267.651,35.726 267.651,34.726" style="fill:none;stroke-width:0.050000mm;stroke:blue"/>
<polygon points="277.613,34.726 277.613,35.726 276.813,35.726 276.813,38.676 277.613,38.676 277.613,44.626 276.813,44.626 276.813,47.576 277.613,47.576 277.613,48.576 291.463,48.576 291.463,47.576 292.263,47.576 292.263,44.626 291.463,44.626 291.463,38.676 292.263,38.676 292.263,35.726 291.463,35.726 291.463,34.726" style="fill:none;stroke-width:0.050000mm;stroke:blue"/>
<polygon points="272.851,15.676 272.851,16.676 272.051,16.676 272.051,19.626 272.851,19.626 272.851,20.376 271.176,20.376 271.176,17.146 269.451,17.146 269.451,16.226 266.301,16.226 266.301,17.146 264.576,17.146 264.576,20.376 263.751,20.376 263.751,23.026 264.576,23.026 264.576,29.296 266.301,29.296 266.301,30.276 269.451,30.276 269.451,29.296 271.176,29.296 271.176,24.826 272.851,24.826 272.851,25.576 272.051,25.576 272.051,28.526 272.851,28.526 272.851,29.526 286.701,29.526 286.701,28.526 287.501,28.526 287.501,25.576 286.701,25.576 286.701,24.826 288.376,24.826 288.376,29.296 290.101,29.296 290.101,30.276 293.251,30.276 293.251,29.296 294.976,29.296 294.976,23.026 295.801,23.026 295.801,20.376 294.976,20.376 294.976,17.146 293.251,17.146 293.251,16.226 290.101,16.226 290.101,17.146 288.376,17.146 288.376,20.376 286.701,20.376 286.701,19.626 287.501,19.626 287.501,16.676 286.701,16.676 286.701,15.676" style="fill:none;stroke-width:0.050000mm;stroke:blue"/>
<polygon points="15.676,15.676 15.676,16.676 14.876,16.676 14.876,19.626 15.676,19.626 15.676,25.576 14.876,25.576 14.876,28.526 15.676,28.526 15.676,29.526 29.526,29.526 29.526,28.526 30.326,28.526 30.326,25.576 29.526,25.576 29.526,19.626 30.326,19.626 30.326,16.676 29.526,16.676 29.526,15.676" style="fill:none;stroke-width:0.050000mm;stroke:blue"/>
<polygon points="34.726,15.676 34.726,16.676 33.926,16.676 33.926,19.626 34.726,19.626 34.726,25.576 33.926,25.576 33.926,28.526 34.726,28.526 34.726,29.526 48.576,29.526 48.576,28.526 49.376,28.526 49.376,25.576 48.576,25.576 48.576,19.626 49.376,19.626 49.376,16.676 48.576,16.676 48.576,15.676" style="fill:none;stroke-width:0.050000mm;stroke:blue"/>
<polygon points="53.776,15.676 53.776,16.676 52.976,16.676 52.976,19.626 53.776,19.626 53.776,25.576 52.976,25.576 52.976,28.526 53.776,28.526 53.776,29.526 67.626,29.526 67.626,28.526 68.426,28.526 68.426,25.576 67.626,25.576 67.626,19.626 68.426,19.626 68.426,16.676 67.626,16.676 67.626,15.676" style="fill:none;stroke-width:0.050000mm;stroke:blue"/>
<polygon points="72.826,15.676 72.826,16.676 72.026,16.676 72.026,19.626 72.826,19.626 72.826,25.576 72.026,25.576 72.026,28.526 72.826,28.526 72.826,29.526 86.676,29.526 86.676,28.526 87.476,28.526 87.476,25.576 86.676,25.576 86.676,19.626 87.476,19.626 87.476,16.676 86.676,16.676 86.676,15.676" style="fill:none;stroke-width:0.050000mm;stroke:blue"/>
<polygon points="91.876,15.676 91.876,16.676 91.076,16.676 91.076,19.626 91.876,19.626 91.876,25.576 91.076,25.576 91.076,28.526 91.876,28.526 91.876,29.526 105.726,29.526 105.726,28.526 106.525,28.526 106.525,25.576 105.726,25.576 105.726,19.626 106.525,19.626 106.525,16.676 105.726,16.676 105.726,15.676" style="fill:none;stroke-width:0.050000mm;stroke:blue"/>
<polygon points="110.926,15.676 110.926,16.676 110.126,16.676 110.126,19.626 110.926,19.626 110.926,25.576 110.126,25.576 110.126,28.526 110.926,28.526 110.926,29.526 124.775,29.526 124.775,28.526 125.575,28.526 125.575,25.576 124.775,25.576 124.775,19.626 125.575,19.626 125.575,16.676 124.775,16.676 124.775,15.676" style="fill:none;stroke-width:0.050000mm;stroke:blue"/>
<polygon points="129.976,15.676 129.976,16.676 129.176,16.676 129.176,19.626 129.976,19.626 129.976,25.576 129.176,25.576 129.176,28.526 129.976,28.526 129.976,29.526 143.826,29.526 143.826,28.526 144.626,28.526 144.626,25.576 143.826,25.576 143.826,19.626 144.626,19.626 144.626,16.676 143.826,16.676 143.826,15.676" style="fill:none;stroke-width:0.050000mm;stroke:blue"/>
<polygon points="149.026,15.676 149.026,16.676 148.226,16.676 148.226,19.626 149.026,19.626 149.026,25.576 148.226,25.576 148.226,28.526 149.026,28.526 149.026,29.526 162.876,29.526 162.876,28.526 163.676,28.526 163.676,25.576 162.876,25.576 162.876,19.626 163.676,19.626 163.676,16.676 162.876,16.676 162.876,15.676" style="fill:none;stroke-width:0.050000mm;stroke:blue"/>
<polygon points="168.076,15.676 168.076,16.676 167.276,16.676 167.276,19.626 168.076,19.626 168.076,25.576 167.276,25.576 167.276,28.526 168.076,28.526 168.076,29.526 181.926,29.526 181.926,28.526 182.726,28.526 182.726,25.576 181.926,25.576 181.926,19.626 182.726,19.626 182.726,16.676 181.926,16.676 181.926,15.676" style="fill:none;stroke-width:0.050000mm;stroke:blue"/>
<polygon points="187.126,15.676 187.126,16.676 186.326,16.676 186.326,19.626 187.126,19.626 187.126,25.576 186.326,25.576 186.326,28.526 187.126,28.526 187.126,29.526 200.976,29.526 200.976,28.526 201.776,28.526 201.776,25.576 200.976,25.576 200.976,19.626 201.776,19.626 201.776,16.676 200.976,16.676 200.976,15.676" style="fill:none;stroke-width:0.050000mm;stroke:blue"/>
<polygon points="206.176,15.676 206.176,16.676 205.376,16.676 205.376,19.626 206.176,19.626 206.176,25.576 205.376,25.576 205.376,28.526 206.176,28.526 206.176,29.526 220.026,29.526 220.026,28.526 220.826,28.526 220.826,25.576 220.026,25.576 220.026,19.626 220.826,19.626 220.826,16.676 220.026,16.676 220.026,15.676" style="fill:none;stroke-width:0.050000mm;stroke:blue"/>
<polygon points="225.226,15.676 225.226,16.676 224.426,16.676 224.426,19.626 225.226,19.626 225.226,25.576 224.426,25.576 224.426,28.526 225.226,28.526 225.226,29.526 239.076,29.526 239.076,28.526 239.876,28.526 239.876,25.576 239.076,25.576 239.076,19.626 239.876,19.626 239.876,16.676 239.076,16.676 239.076,15.676" style="fill:none;stroke-width:0.050000mm;stroke:blue"/>
<polygon points="244.276,15.676 244.276,16.676 243.476,16.676 243.476,19.626 244.276,19.626 244.276,25.576 243.476,25.576 243.476,28.526 244.276,28.526 244.276,29.526 258.126,29.526 258.126,28.526 258.926,28.526 258.926,25.576 258.126,25.576 258.126,19.626 258.926,19.626 258.926,16.676 258.126,16.676 258.126,15.676" style="fill:none;stroke-width:0.050000mm;stroke:blue"/>
<polygon points="8.774,8.148 8.502,8.287 8.287,8.502 8.148,8.774 8.100,9.076 8.148,9.377 8.287,9.649 8.502,9.864 8.774,10.003 9.075,10.051 9.377,10.003 9.649,9.864 9.864,9.649 10.003,9.377 10.050,9.076 10.003,8.774 9.864,8.502 9.649,8.287 9.377,8.148 9.075,8.101" style="fill:none;stroke-width:0.050000mm;stroke:blue"/>
<polygon points="106.691,8.148 106.419,8.287 106.204,8.502 106.065,8.774 106.018,9.076 106.065,9.377 106.204,9.649 106.419,9.864 106.691,10.003 106.993,10.050 107.294,10.003 107.566,9.864 107.781,9.649 107.920,9.377 107.968,9.076 107.920,8.774 107.781,8.502 107.566,8.287 107.294,8.148 106.993,8.101" style="fill:none;stroke-width:0.050000mm;stroke:blue"/>
<polygon points="204.608,8.148 204.336,8.287 204.121,8.502 203.982,8.774 203.935,9.076 203.982,9.377 204.121,9.649 204.336,9.864 204.608,10.003 204.910,10.050 205.211,10.003 205.483,9.864 205.698,9.649 205.837,9.377 205.885,9.076 205.837,8.774 205.698,8.502 205.483,8.287 205.211,8.148 204.910,8.101" style="fill:none;stroke-width:0.050000mm;stroke:blue"/>
<polygon points="302.525,8.148 302.253,8.287 302.038,8.502 301.899,8.774 301.852,9.076 301.899,9.377 302.038,9.649 302.253,9.864 302.525,10.003 302.827,10.050 303.128,10.003 303.400,9.864 303.615,9.649 303.754,9.377 303.802,9.076 303.754,8.774 303.615,8.502 303.400,8.287 303.128,8.148 302.827,8.101" style="fill:none;stroke-width:0.050000mm;stroke:blue"/>
</svg>
