<?xml version="1.0"?>
<!-- Generated by SVGo -->
<svg width="311.902mm" height="121.402mm"
     viewBox="0.000 0.000 311.902 121.402"
     xmlns="http://www.w3.org/2000/svg" 
     xmlns:xlink="http://www.w3.org/1999/xlink">
<polygon points="304.902,5.001 305.058,5.007 305.214,5.025 305.368,5.056 305.520,5.098 305.667,5.153 305.809,5.218 305.946,5.295 306.077,5.382 306.200,5.480 306.316,5.586 306.422,5.702 306.520,5.825 306.607,5.956 306.684,6.093 306.749,6.235 306.804,6.382 306.846,6.534 306.877,6.688 306.895,6.844 306.902,7.001 306.902,114.402 306.895,114.558 306.877,114.714 306.846,114.868 306.804,115.020 306.749,115.167 306.684,115.309 306.607,115.446 306.520,115.577 306.422,115.700 306.316,115.816 306.200,115.922 306.077,116.020 305.946,116.107 305.809,116.184 305.667,116.249 305.520,116.304 305.368,116.346 305.214,116.377 305.058,116.395 304.901,116.401 7.001,116.402 6.844,116.395 6.688,116.377 6.534,116.346 6.382,116.304 6.235,116.249 6.093,116.184 5.956,116.107 5.825,116.020 5.702,115.922 5.586,115.816 5.480,115.700 5.382,115.577 5.295,115.446 5.218,115.309 5.153,115.167 5.098,115.020 5.056,114.868 5.025,114.714 5.007,114.558 5.000,114.402 5.001,7.001 5.007,6.844 5.025,6.688 5.056,6.534 5.098,6.382 5.153,6.235 5.218,6.093 5.295,5.956 5.382,5.825 5.480,5.702 5.586,5.586 5.702,5.480 5.825,5.382 5.956,5.295 6.093,5.218 6.235,5.153 6.382,5.098 6.534,5.056 6.688,5.025 6.844,5.007 7.001,5.000" style="fill:none;stroke-width:0.050000mm;stroke:blue"/>
<polygon points="302.525,111.399 302.253,111.538 302.038,111.753 301.899,112.025 301.852,112.327 301.899,112.628 302.038,112.900 302.253,113.115 302.525,113.254 302.827,113.301 303.128,113.254 303.400,113.115 303.615,112.900 303.754,112.628 303.802,112.327 303.754,112.025 303.615,111.753 303.400,111.538 303.128,111.399 302.827,111.352" style="fill:none;stroke-width:0.050000mm;stroke:blue"/>
<polygon points="204.608,111.399 204.336,111.538 204.121,111.753 203.982,112.025 203.935,112.327 203.982,112.628 204.121,112.900 204.336,113.115 204.608,113.254 204.910,113.301 205.211,113.254 205.483,113.115 205.698,112.900 205.837,112.628 205.885,112.327 205.837,112.025 205.698,111.753 205.483,111.538 205.211,111.399 204.910,111.352" style="fill:none;stroke-width:0.050000mm;stroke:blue"/>
<polygon points="106.691,111.399 106.419,111.538 106.204,111.753 106.065,112.025 106.018,112.327 106.065,112.628 106.204,112.900 106.419,113.115 106.691,113.254 106.993,113.301 107.294,113.254 107.566,113.115 107.781,112.900 107.920,112.628 107.968,112.327 107.920,112.025 107.781,111.753 107.566,111.538 107.294,111.399 106.993,111.352" style="fill:none;stroke-width:0.050000mm;stroke:blue"/>
<polygon points="8.774,111.399 8.502,111.538 8.287,111.753 8.148,112.025 8.100,112.327 8.148,112.628 8.287,112.900 8.502,113.115 8.774,113.254 9.075,113.301 9.377,113.254 9.649,113.115 9.864,112.900 10.003,112.628 10.050,112.327 10.003,112.025 9.864,111.753 9.649,111.538 9.377,111.399 9.075,111.352" style="fill:none;stroke-width:0.050000mm;stroke:blue"/>
<polygon points="13.151,13.150 13.151,108.252 298.752,108.252 298.752,13.150" style="fill:none;stroke-width:0.050000mm;stroke:blue"/>
<polygon points="302.525,59.774 302.253,59.912 302.038,60.128 301.899,60.400 301.852,60.701 301.899,61.002 302.038,61.274 302.253,61.490 302.525,61.628 302.827,61.676 303.128,61.628 303.400,61.490 303.615,61.274 303.754,61.002 303.802,60.701 303.754,60.400 303.615,60.128 303.400,59.912 303.128,59.774 302.827,59.726" style="fill:none;stroke-width:0.050000mm;stroke:blue"/>
<polygon points="8.774,59.774 8.502,59.912 8.287,60.128 8.148,60.400 8.100,60.701 8.148,61.002 8.287,61.274 8.502,61.490 8.774,61.628 9.075,61.676 9.377,61.628 9.649,61.490 9.864,61.274 10.003,61.002 10.050,60.701 10.003,60.400 9.864,60.128 9.649,59.912 9.377,59.774 9.075,59.726" style="fill:none;stroke-width:0.050000mm;stroke:blue"/>
<polygon points="8.774,8.148 8.502,8.287 8.287,8.502 8.148,8.774 8.100,9.076 8.148,9.377 8.287,9.649 8.502,9.864 8.774,10.003 9.075,10.051 9.377,10.003 9.649,9.864 9.864,9.649 10.003,9.377 10.050,9.076 10.003,8.774 9.864,8.502 9.649,8.287 9.377,8.148 9.075,8.101" style="fill:none;stroke-width:0.050000mm;stroke:blue"/>
<polygon points="106.691,8.148 106.419,8.287 106.204,8.502 106.065,8.774 106.018,9.076 106.065,9.377 106.204,9.649 106.419,9.864 106.691,10.003 106.993,10.050 107.294,10.003 107.566,9.864 107.781,9.649 107.920,9.377 107.968,9.076 107.920,8.774 107.781,8.502 107.566,8.287 107.294,8.148 106.993,8.101" style="fill:none;stroke-width:0.050000mm;stroke:blue"/>
<polygon points="204.608,8.148 204.336,8.287 204.121,8.502 203.982,8.774 203.935,9.076 203.982,9.377 204.121,9.649 204.336,9.864 204.608,10.003 204.910,10.050 205.211,10.003 205.483,9.864 205.698,9.649 205.837,9.377 205.885,9.076 205.837,8.774 205.698,8.502 205.483,8.287 205.211,8.148 204.910,8.101" style="fill:none;stroke-width:0.050000mm;stroke:blue"/>
<polygon points="302.525,8.148 302.253,8.287 302.038,8.502 301.899,8.774 301.852,9.076 301.899,9.377 302.038,9.649 302.253,9.864 302.525,10.003 302.827,10.050 303.128,10.003 303.400,9.864 303.615,9.649 303.754,9.377 303.802,9.076 303.754,8.774 303.615,8.502 303.400,8.287 303.128,8.148 302.827,8.101" style="fill:none;stroke-width:0.050000mm;stroke:blue"/>
</svg>
